# xmcd
#
# Track frame offsets:
# 150
# 17634
# 33065
# 54830
# 71791
# 91686
# 107014
# 126796
# 143534
# 161764
#
# Disc length: 2424 seconds
#
#
# Revision: 0
# Processed by: cddbd v1.4PL0 Copyright (c) Steve Scherf et al.
# Submitted via: FreeRIP 2.00 
#
DISCID=7409760a
DTITLE=Jimmy Lee Hannaford - Outside In
DYEAR=2002
DGENRE=Blues
TTITLE0=Southern Rain
TTITLE1=Jewels
TTITLE2=Moon Over Mississippi
TTITLE3=Suit of Armor
TTITLE4=Ballad of Joe Thibodeaux
TTITLE5=Waitin' Around the Corner
TTITLE6=Another Day
TTITLE7=Little Town
TTITLE8=Some Dreams
TTITLE9=Hey D'On
EXTD=
EXTT0=
EXTT1=
EXTT2=
EXTT3=
EXTT4=
EXTT5=
EXTT6=
EXTT7=
EXTT8=
EXTT9=
PLAYORDER=
